<mxfile host="app.diagrams.net" modified="2023-12-01T14:55:25.994Z" agent="Mozilla/5.0 (X11; Linux x86_64) AppleWebKit/537.36 (KHTML, like Gecko) Chrome/119.0.0.0 Safari/537.36" version="22.1.5" etag="luipsVqBSu7a-dqFod6e" type="github">
  <diagram name="PÃ¡gina-1" id="AFbe7G4Jv4l9hgiaxubx">
    <mxGraphModel>
      <root>
        <mxCell id="0" />
        <mxCell id="1" parent="0" />
      </root>
    </mxGraphModel>
  </diagram>
</mxfile>
